<svg width="202" height="41" viewBox="0 0 202 41" fill="none" xmlns="http://www.w3.org/2000/svg">
<rect y="3" width="110" height="38" fill="#F7F7F7"/>
<path d="M9.50735 35L10.1674 8.27H12.6754L17.9554 31.469L23.3344 8.27H25.8424L26.5024 35H24.4234L23.8954 13.715L18.7804 35H17.1634L12.1144 13.748L11.5864 35H9.50735ZM29.9624 35L34.4084 13.94H36.4884L40.9604 35H39.0104L37.9704 29.358H32.9524L31.8864 35H29.9624ZM33.2384 27.928H37.7104L35.4744 16.566L33.2384 27.928ZM48.7497 35.286C47.415 35.286 46.3663 35.0087 45.6037 34.454C44.8583 33.8993 44.3297 33.1193 44.0177 32.114C43.7057 31.0913 43.5497 29.9127 43.5497 28.578V20.362C43.5497 19.01 43.697 17.84 43.9917 16.852C44.3037 15.864 44.841 15.1013 45.6037 14.564C46.3837 14.0093 47.4757 13.732 48.8797 13.732C50.145 13.732 51.1417 13.966 51.8697 14.434C52.615 14.902 53.1523 15.5867 53.4817 16.488C53.811 17.3893 53.9757 18.49 53.9757 19.79V20.518H52.1037V19.79C52.1037 18.7847 52.0083 17.9527 51.8177 17.294C51.6443 16.6353 51.3323 16.1413 50.8817 15.812C50.431 15.4827 49.7723 15.318 48.9057 15.318C47.935 15.318 47.207 15.526 46.7217 15.942C46.2363 16.358 45.9157 16.93 45.7597 17.658C45.621 18.386 45.5517 19.218 45.5517 20.154V28.812C45.5517 29.8347 45.6383 30.71 45.8117 31.438C46.0023 32.1487 46.3403 32.7033 46.8257 33.102C47.3283 33.4833 48.0303 33.674 48.9317 33.674C49.8157 33.674 50.4917 33.4833 50.9597 33.102C51.4277 32.7033 51.757 32.14 51.9477 31.412C52.1383 30.684 52.2337 29.8 52.2337 28.76V26.29H49.1137V24.808H54.0537V35H52.7797L52.5457 32.608C52.2857 33.4053 51.8523 34.0553 51.2457 34.558C50.6563 35.0433 49.8243 35.286 48.7497 35.286ZM57.9681 35V13.94H65.5861V15.474H59.9701V23.378H64.5461V24.834H59.9701V33.518H65.6381V35H57.9681ZM68.8735 35V13.94H70.3035L77.0115 30.294V13.94H78.7275V35H77.3235L70.5895 18.464V35H68.8735ZM85.5013 35V15.474H81.5233V13.94H91.3513V15.474H87.4773V35H85.5013ZM92.4081 35L96.8541 13.94H98.9341L103.406 35H101.456L100.416 29.358H95.3981L94.3321 35H92.4081ZM95.6841 27.928H100.156L97.9201 16.566L95.6841 27.928Z" fill="#272528"/>
<path d="M124.949 35.33C123.167 35.33 121.77 34.989 120.758 34.307C119.768 33.603 119.064 32.635 118.646 31.403C118.25 30.149 118.052 28.719 118.052 27.113V16.025C118.052 14.397 118.261 12.989 118.679 11.801C119.119 10.591 119.834 9.656 120.824 8.996C121.836 8.336 123.211 8.006 124.949 8.006C126.665 8.006 128.018 8.336 129.008 8.996C130.02 9.656 130.735 10.591 131.153 11.801C131.571 12.989 131.78 14.397 131.78 16.025V27.146C131.78 28.752 131.571 30.171 131.153 31.403C130.757 32.613 130.064 33.57 129.074 34.274C128.084 34.978 126.709 35.33 124.949 35.33ZM124.949 33.317C126.115 33.317 127.006 33.086 127.622 32.624C128.238 32.14 128.656 31.48 128.876 30.644C129.118 29.786 129.239 28.796 129.239 27.674V15.563C129.239 14.441 129.118 13.462 128.876 12.626C128.656 11.79 128.238 11.152 127.622 10.712C127.006 10.25 126.115 10.019 124.949 10.019C123.761 10.019 122.848 10.25 122.21 10.712C121.594 11.152 121.165 11.79 120.923 12.626C120.703 13.462 120.593 14.441 120.593 15.563V27.674C120.593 28.796 120.703 29.786 120.923 30.644C121.165 31.48 121.594 32.14 122.21 32.624C122.848 33.086 123.761 33.317 124.949 33.317ZM136.114 35V13.94H140.872C142.189 13.94 143.221 14.1567 143.966 14.59C144.729 15.006 145.275 15.6213 145.604 16.436C145.933 17.2333 146.098 18.1867 146.098 19.296C146.098 20.076 146.011 20.8127 145.838 21.506C145.665 22.1993 145.37 22.7887 144.954 23.274C144.538 23.7593 143.949 24.08 143.186 24.236L146.41 35H144.486L141.392 24.652H138.09V35H136.114ZM138.09 23.196H140.768C141.652 23.196 142.337 23.0487 142.822 22.754C143.307 22.4593 143.654 22.026 143.862 21.454C144.07 20.882 144.174 20.1627 144.174 19.296C144.174 17.996 143.949 17.0253 143.498 16.384C143.047 15.7427 142.155 15.422 140.82 15.422H138.09V23.196ZM149.991 35V13.94H151.967V35H149.991ZM160.98 35.286C159.646 35.286 158.597 35.0087 157.834 34.454C157.089 33.8993 156.56 33.1193 156.248 32.114C155.936 31.0913 155.78 29.9127 155.78 28.578V20.362C155.78 19.01 155.928 17.84 156.222 16.852C156.534 15.864 157.072 15.1013 157.834 14.564C158.614 14.0093 159.706 13.732 161.11 13.732C162.376 13.732 163.372 13.966 164.1 14.434C164.846 14.902 165.383 15.5867 165.712 16.488C166.042 17.3893 166.206 18.49 166.206 19.79V20.518H164.334V19.79C164.334 18.7847 164.239 17.9527 164.048 17.294C163.875 16.6353 163.563 16.1413 163.112 15.812C162.662 15.4827 162.003 15.318 161.136 15.318C160.166 15.318 159.438 15.526 158.952 15.942C158.467 16.358 158.146 16.93 157.99 17.658C157.852 18.386 157.782 19.218 157.782 20.154V28.812C157.782 29.8347 157.869 30.71 158.042 31.438C158.233 32.1487 158.571 32.7033 159.056 33.102C159.559 33.4833 160.261 33.674 161.162 33.674C162.046 33.674 162.722 33.4833 163.19 33.102C163.658 32.7033 163.988 32.14 164.178 31.412C164.369 30.684 164.464 29.8 164.464 28.76V26.29H161.344V24.808H166.284V35H165.01L164.776 32.608C164.516 33.4053 164.083 34.0553 163.476 34.558C162.887 35.0433 162.055 35.286 160.98 35.286ZM170.277 35V13.94H172.253V35H170.277ZM176.508 35V13.94H177.938L184.646 30.294V13.94H186.362V35H184.958L178.224 18.464V35H176.508ZM195.008 35.26C193.864 35.26 192.911 35.026 192.148 34.558C191.403 34.0727 190.84 33.4053 190.458 32.556C190.077 31.6893 189.843 30.684 189.756 29.54L191.498 29.02C191.585 29.8867 191.741 30.6753 191.966 31.386C192.192 32.0793 192.547 32.634 193.032 33.05C193.518 33.4487 194.185 33.648 195.034 33.648C195.97 33.648 196.698 33.4053 197.218 32.92C197.738 32.4347 197.998 31.6633 197.998 30.606C197.998 29.67 197.764 28.864 197.296 28.188C196.846 27.512 196.222 26.8013 195.424 26.056L191.706 22.494C191.048 21.8527 190.562 21.194 190.25 20.518C189.938 19.8247 189.782 19.0707 189.782 18.256C189.782 16.8 190.216 15.682 191.082 14.902C191.949 14.122 193.102 13.732 194.54 13.732C195.286 13.732 195.953 13.8273 196.542 14.018C197.149 14.2087 197.66 14.5207 198.076 14.954C198.51 15.37 198.848 15.916 199.09 16.592C199.333 17.268 199.498 18.0913 199.584 19.062L197.894 19.504C197.825 18.62 197.678 17.866 197.452 17.242C197.244 16.6007 196.906 16.1153 196.438 15.786C195.988 15.4567 195.355 15.292 194.54 15.292C193.674 15.292 192.963 15.5173 192.408 15.968C191.854 16.4187 191.576 17.1207 191.576 18.074C191.576 18.646 191.68 19.166 191.888 19.634C192.114 20.102 192.504 20.6047 193.058 21.142L196.776 24.652C197.608 25.432 198.328 26.2987 198.934 27.252C199.541 28.2053 199.844 29.28 199.844 30.476C199.844 31.5333 199.636 32.4173 199.22 33.128C198.822 33.8387 198.258 34.376 197.53 34.74C196.802 35.0867 195.962 35.26 195.008 35.26Z" fill="#F7F7F7"/>
</svg>
